<?xml version="1.0" encoding="UTF-8" standalone="no"?>
<!-- Created with Inkscape (http://www.inkscape.org/) -->

<svg
   xmlns:dc="http://purl.org/dc/elements/1.1/"
   xmlns:cc="http://creativecommons.org/ns#"
   xmlns:rdf="http://www.w3.org/1999/02/22-rdf-syntax-ns#"
   xmlns:svg="http://www.w3.org/2000/svg"
   xmlns="http://www.w3.org/2000/svg"
   xmlns:sodipodi="http://sodipodi.sourceforge.net/DTD/sodipodi-0.dtd"
   xmlns:inkscape="http://www.inkscape.org/namespaces/inkscape"
   width="103.73743mm"
   height="48.092525mm"
   viewBox="0 0 103.73743 48.092525"
   version="1.1"
   id="svg8"
   inkscape:version="0.92.5 (0.92.5+69)"
   sodipodi:docname="vector_hello.svg">
  <defs
     id="defs2" />
  <sodipodi:namedview
     id="base"
     pagecolor="#ffffff"
     bordercolor="#666666"
     borderopacity="1.0"
     inkscape:pageopacity="0.0"
     inkscape:pageshadow="2"
     inkscape:zoom="0.98994949"
     inkscape:cx="613.51232"
     inkscape:cy="74.871381"
     inkscape:document-units="mm"
     inkscape:current-layer="layer1"
     showgrid="false"
     inkscape:window-width="3706"
     inkscape:window-height="2031"
     inkscape:window-x="134"
     inkscape:window-y="55"
     inkscape:window-maximized="1"
     fit-margin-top="0"
     fit-margin-left="0"
     fit-margin-right="0"
     fit-margin-bottom="0" />
  <metadata
     id="metadata5">
    <rdf:RDF>
      <cc:Work
         rdf:about="">
        <dc:format>image/svg+xml</dc:format>
        <dc:type
           rdf:resource="http://purl.org/dc/dcmitype/StillImage" />
        <dc:title></dc:title>
      </cc:Work>
    </rdf:RDF>
  </metadata>
  <g
     inkscape:label="Layer 1"
     inkscape:groupmode="layer"
     id="layer1"
     transform="translate(-51.131162,-121.59672)">
    <path
       inkscape:connector-curvature="0"
       id="path3796"
       d="m 51.453861,169.51261 c -0.64185,-0.42954 -0.48106,-1.38993 1.92046,-11.47073 1.05751,-4.43909 1.92274,-8.42902 1.92274,-8.8665 0,-0.49873 -0.26317,-0.86424 -0.70555,-0.97992 -1.15394,-0.30176 -0.87457,-1.58575 0.52464,-2.41131 1.4587,-0.86065 1.27317,-0.29665 4.21526,-12.81382 1.772391,-7.54071 2.387451,-9.63042 2.974391,-10.10569 0.91936,-0.74445 4.23438,-1.57355 4.62015,-1.15553 0.15563,0.16864 -0.17818,1.89412 -0.74178,3.8344 -2.19662,7.56211 -4.81907,18.17018 -4.53527,18.34558 0.26879,0.16612 5.11323,-0.18722 11.28705,-0.82324 l 2.29305,-0.23623 1.998032,-7.76111 c 3.30551,-12.8399 3.32498,-12.87639 6.86899,-12.87639 2.24439,0 2.26275,0.0637 0.98915,3.43153 -1.40607,3.71809 -5.449,17.09282 -5.25952,17.3994 0.0933,0.15089 0.84341,0.38548 1.66701,0.52131 2.76466,0.45597 3.01163,1.22926 1.07666,3.37104 -1.23503,1.36703 -1.3806,1.43031 -2.80057,1.21737 -1.49385,-0.22401 -1.49883,-0.22105 -1.8742,1.11667 -0.73001,2.60152 -2.801672,12.66729 -3.216612,15.62879 -0.23108,1.64924 -0.57824,3.19705 -0.77148,3.43959 -0.48234,0.60538 -3.6005,0.56851 -4.11268,-0.0486 -0.29459,-0.35497 -0.30754,-0.93041 -0.0471,-2.09254 0.77582,-3.46191 0.85783,-7.52546 0.20084,-9.95256 -1.28258,-4.73825 -4.90273,-8.63197 -8.02548,-8.63197 -1.07737,0 -1.41106,0.16066 -1.64863,0.79375 -0.25922,0.6908 -1.889321,9.37945 -3.292031,17.54694 -0.38761,2.25691 -0.5842,2.7046 -1.34849,3.07091 -1.27786,0.61246 -3.60145,0.89541 -4.17903,0.50889 z M 73.441162,150.3043 c 0.37488,-1.67974 0.59211,-3.14356 0.48274,-3.25293 -0.30846,-0.30847 -5.09446,-0.64174 -5.72746,-0.39883 -0.45541,0.17475 -0.22296,0.639 1.21085,2.41834 0.97594,1.21113 1.96375,2.72558 2.19512,3.36542 0.23137,0.63984 0.58638,1.10907 0.78891,1.04272 0.20253,-0.0663 0.67496,-1.49497 1.04984,-3.17472 z m 17.339572,10.50747 c -2.8959,-0.7353 -5.03299,-3.52868 -5.39686,-7.05421 -0.49795,-4.82469 3.72237,-12.06555 8.44244,-14.4848 3.59205,-1.8411 6.988566,-0.76051 6.971336,2.21791 -0.0178,3.07621 -2.393166,6.04889 -7.694366,9.62923 -1.58008,1.06715 -2.96112,2.20644 -3.06899,2.53174 -0.10786,0.32531 0.0365,1.1482 0.32081,1.82866 1.16636,2.79148 4.99275,3.13073 8.58234,0.76091 2.804266,-1.85137 7.766436,-6.74551 8.197016,-8.08465 1.11428,-3.46557 4.37651,-18.45155 4.52513,-20.78752 0.19422,-3.05253 0.28533,-3.15517 3.21703,-3.62396 2.62577,-0.41988 2.91126,0.8583 1.42602,6.38454 -0.36503,1.35819 -2.24403,8.63122 -4.17556,16.16229 -1.93153,7.53107 -3.70102,13.92076 -3.9322,14.19931 -0.51003,0.61455 -1.07118,0.63762 -2.26607,0.0932 -1.41957,-0.6468 -1.47677,-1.67292 -0.31615,-5.67216 0.27007,-0.93059 -0.67247,-0.75857 -1.65897,0.30278 -1.10839,1.19249 -4.664436,3.71896 -6.627896,4.70892 -2.12583,1.07182 -4.53388,1.39846 -6.54506,0.88781 z m 2.65299,-13.06488 c 2.93098,-2.43172 4.20497,-5.12038 2.92829,-6.17993 -0.46897,-0.38921 -0.71677,-0.3807 -1.48596,0.051 -1.32444,0.74339 -3.06545,3.16593 -3.92359,5.45953 -1.14955,3.07243 -0.59537,3.22193 2.48126,0.66937 z m 24.032746,12.8168 c -0.44077,-0.21242 -0.88102,-0.71762 -0.97831,-1.12265 -0.0973,-0.40503 1.34477,-7.08642 3.20457,-14.84753 2.17424,-9.07327 3.45501,-15.16028 3.58745,-17.04984 0.22785,-3.25083 0.2934,-3.32772 3.23811,-3.79859 2.62576,-0.41988 2.91125,0.8583 1.42602,6.38454 -0.36503,1.35819 -2.24404,8.63122 -4.17557,16.16229 -1.93153,7.53107 -3.70101,13.92076 -3.93219,14.19931 -0.49005,0.59047 -1.24721,0.61363 -2.37008,0.0725 z m 14.54227,-0.0622 c -1.45649,-0.6344 -2.89333,-2.41822 -3.23167,-4.01208 -0.15324,-0.72189 -0.26432,-2.66191 -0.24683,-4.31114 0.0375,-3.53426 0.83685,-5.9313 3.08549,-9.25228 1.99491,-2.94623 2.92442,-3.562 5.61777,-3.72157 1.957,-0.11595 2.38112,-0.0147 3.82496,0.91304 2.0504,1.31751 3.49138,3.99428 3.49138,6.48562 0,1.41045 0.10887,1.69463 0.64925,1.69463 0.7341,0 5.81541,-2.96786 7.48138,-4.36968 1.89025,-1.59054 2.85823,-0.92283 1.3823,0.9535 -1.00298,1.27509 -5.762,4.79894 -8.18918,6.06375 -1.1152,0.58113 -2.02801,1.22968 -2.02847,1.44122 -3.5e-4,0.21155 -0.48624,1.356 -1.07951,2.54323 -2.3535,4.70978 -7.09609,7.16631 -10.75687,5.57176 z m 4.8836,-3.39012 c 1.21091,-0.9525 2.48249,-3.06192 2.23482,-3.70734 -0.11615,-0.30267 -0.65414,-0.52021 -1.28655,-0.52021 -1.41713,0 -2.86013,-0.76634 -4.00501,-2.12695 -0.50628,-0.60168 -1.06595,-1.00408 -1.2437,-0.89423 -0.53573,0.3311 -0.80757,3.45102 -0.44232,5.07661 0.18819,0.83757 0.61921,1.82899 0.95783,2.20315 0.80763,0.89243 2.62994,0.87749 3.78493,-0.031 z m 3.81868,-8.37269 c 0.47995,-1.2349 0.18677,-4.26745 -0.55038,-5.69295 -0.81361,-1.57335 -2.3174,-1.51753 -3.98278,0.14784 -1.1698,1.1698 -1.23246,1.34751 -1.02619,2.91042 0.29292,2.21953 1.74093,3.60483 3.76802,3.60483 1.21625,0 1.46707,-0.13584 1.79133,-0.97014 z m 7.78993,11.8357 c -1.61208,-1.61208 1.00219,-4.52239 4.05139,-4.51016 1.73446,0.007 2.31625,0.39721 2.31625,1.55367 0,1.74693 -2.21575,3.37982 -4.58623,3.37982 -0.74694,0 -1.54858,-0.1905 -1.78141,-0.42333 z"
       style="fill:#af972f;stroke-width:0.35277778" />
  </g>
</svg>
